  0
SECTION
  2
BLOCKS
  0
ENDSEC
  0
SECTION
  2
ENTITIES
  0
LINE
  8
0
 10
0.784866
 20
-12.4753
 11
3.8627
 21
-11.8882
  0
LINE
  8
0
 10
3.8627
 20
-11.8882
 11
6.69783
 21
-10.5541
  0
LINE
  8
0
 10
6.69783
 20
-10.5541
 11
9.11211
 21
-8.55682
  0
LINE
  8
0
 10
9.11211
 20
-8.55682
 11
10.9538
 21
-6.02191
  0
LINE
  8
0
 10
10.9538
 20
-6.02191
 11
12.1073
 21
-3.10861
  0
LINE
  8
0
 10
12.1073
 20
-3.10861
 11
12.5
 21
0
  0
LINE
  8
0
 10
12.5
 20
0
 11
12.1073
 21
3.10861
  0
LINE
  8
0
 10
12.1073
 20
3.10861
 11
10.9538
 21
6.02191
  0
LINE
  8
0
 10
10.9538
 20
6.02191
 11
9.11211
 21
8.55682
  0
LINE
  8
0
 10
9.11211
 20
8.55682
 11
6.69783
 21
10.5541
  0
LINE
  8
0
 10
6.69783
 20
10.5541
 11
3.8627
 21
11.8882
  0
LINE
  8
0
 10
3.8627
 20
11.8882
 11
0.784866
 21
12.4753
  0
LINE
  8
0
 10
0.784866
 20
12.4753
 11
-2.34225
 21
12.2786
  0
LINE
  8
0
 10
-2.34225
 20
12.2786
 11
-5.32224
 21
11.3103
  0
LINE
  8
0
 10
-5.32224
 20
11.3103
 11
-7.96779
 21
9.63141
  0
LINE
  8
0
 10
-7.96779
 20
9.63141
 11
-10.1127
 21
7.34731
  0
LINE
  8
0
 10
-10.1127
 20
7.34731
 11
-11.6222
 21
4.60155
  0
LINE
  8
0
 10
-11.6222
 20
4.60155
 11
-12.4014
 21
1.56665
  0
LINE
  8
0
 10
-12.4014
 20
1.56665
 11
-12.4014
 21
-1.56665
  0
LINE
  8
0
 10
-12.4014
 20
-1.56665
 11
-11.6222
 21
-4.60155
  0
LINE
  8
0
 10
-11.6222
 20
-4.60155
 11
-10.1127
 21
-7.34731
  0
LINE
  8
0
 10
-10.1127
 20
-7.34731
 11
-7.96779
 21
-9.63141
  0
LINE
  8
0
 10
-7.96779
 20
-9.63141
 11
-5.32224
 21
-11.3103
  0
LINE
  8
0
 10
-5.32224
 20
-11.3103
 11
-2.34225
 21
-12.2786
  0
LINE
  8
0
 10
-2.34225
 20
-12.2786
 11
0.784866
 21
-12.4753
  0
LINE
  8
0
 10
-0.936905
 20
-4.91142
 11
-2.12889
 21
-4.52412
  0
LINE
  8
0
 10
-2.12889
 20
-4.52412
 11
-3.18712
 21
-3.85255
  0
LINE
  8
0
 10
-3.18712
 20
-3.85255
 11
-4.04507
 21
-2.93892
  0
LINE
  8
0
 10
-4.04507
 20
-2.93892
 11
-4.64888
 21
-1.84062
  0
LINE
  8
0
 10
-4.64888
 20
-1.84062
 11
-4.96057
 21
-0.626663
  0
LINE
  8
0
 10
-4.96057
 20
-0.626663
 11
-4.96057
 21
0.626663
  0
LINE
  8
0
 10
-4.96057
 20
0.626663
 11
-4.64888
 21
1.84062
  0
LINE
  8
0
 10
-4.64888
 20
1.84062
 11
-4.04507
 21
2.93892
  0
LINE
  8
0
 10
-4.04507
 20
2.93892
 11
-3.18712
 21
3.85255
  0
LINE
  8
0
 10
-3.18712
 20
3.85255
 11
-2.12889
 21
4.52412
  0
LINE
  8
0
 10
-2.12889
 20
4.52412
 11
-0.936905
 21
4.91142
  0
LINE
  8
0
 10
-0.936905
 20
4.91142
 11
0.31395
 21
4.99013
  0
LINE
  8
0
 10
0.31395
 20
4.99013
 11
1.54507
 21
4.75528
  0
LINE
  8
0
 10
1.54507
 20
4.75528
 11
2.67912
 21
4.22163
  0
LINE
  8
0
 10
2.67912
 20
4.22163
 11
3.64484
 21
3.42273
  0
LINE
  8
0
 10
3.64484
 20
3.42273
 11
4.38153
 21
2.40877
  0
LINE
  8
0
 10
4.38153
 20
2.40877
 11
4.84291
 21
1.24344
  0
LINE
  8
0
 10
4.84291
 20
1.24344
 11
5
 21
0
  0
LINE
  8
0
 10
5
 20
0
 11
4.84291
 21
-1.24344
  0
LINE
  8
0
 10
4.84291
 20
-1.24344
 11
4.38153
 21
-2.40877
  0
LINE
  8
0
 10
4.38153
 20
-2.40877
 11
3.64484
 21
-3.42273
  0
LINE
  8
0
 10
3.64484
 20
-3.42273
 11
2.67912
 21
-4.22163
  0
LINE
  8
0
 10
2.67912
 20
-4.22163
 11
1.54507
 21
-4.75528
  0
LINE
  8
0
 10
1.54507
 20
-4.75528
 11
0.31395
 21
-4.99013
  0
LINE
  8
0
 10
0.31395
 20
-4.99013
 11
-0.936905
 21
-4.91142
  0
LINE
  8
0
 10
7.46892
 20
-1.47342
 11
7.11133
 21
-1.35724
  0
LINE
  8
0
 10
7.11133
 20
-1.35724
 11
6.79385
 21
-1.15576
  0
LINE
  8
0
 10
6.79385
 20
-1.15576
 11
6.53647
 21
-0.881668
  0
LINE
  8
0
 10
6.53647
 20
-0.881668
 11
6.35533
 21
-0.552185
  0
LINE
  8
0
 10
6.35533
 20
-0.552185
 11
6.26183
 21
-0.187988
  0
LINE
  8
0
 10
6.26183
 20
-0.187988
 11
6.26183
 21
0.187988
  0
LINE
  8
0
 10
6.26183
 20
0.187988
 11
6.35533
 21
0.552185
  0
LINE
  8
0
 10
6.35533
 20
0.552185
 11
6.53647
 21
0.881668
  0
LINE
  8
0
 10
6.53647
 20
0.881668
 11
6.79385
 21
1.15576
  0
LINE
  8
0
 10
6.79385
 20
1.15576
 11
7.11133
 21
1.35724
  0
LINE
  8
0
 10
7.11133
 20
1.35724
 11
7.46892
 21
1.47342
  0
LINE
  8
0
 10
7.46892
 20
1.47342
 11
7.84418
 21
1.49704
  0
LINE
  8
0
 10
7.84418
 20
1.49704
 11
8.21352
 21
1.42657
  0
LINE
  8
0
 10
8.21352
 20
1.42657
 11
8.55373
 21
1.26648
  0
LINE
  8
0
 10
8.55373
 20
1.26648
 11
8.84344
 21
1.02681
  0
LINE
  8
0
 10
8.84344
 20
1.02681
 11
9.06445
 21
0.722626
  0
LINE
  8
0
 10
9.06445
 20
0.722626
 11
9.20287
 21
0.373032
  0
LINE
  8
0
 10
9.20287
 20
0.373032
 11
9.25
 21
0
  0
LINE
  8
0
 10
9.25
 20
0
 11
9.20287
 21
-0.373032
  0
LINE
  8
0
 10
9.20287
 20
-0.373032
 11
9.06445
 21
-0.722626
  0
LINE
  8
0
 10
9.06445
 20
-0.722626
 11
8.84344
 21
-1.02681
  0
LINE
  8
0
 10
8.84344
 20
-1.02681
 11
8.55373
 21
-1.26648
  0
LINE
  8
0
 10
8.55373
 20
-1.26648
 11
8.21352
 21
-1.42657
  0
LINE
  8
0
 10
8.21352
 20
-1.42657
 11
7.84418
 21
-1.49704
  0
LINE
  8
0
 10
7.84418
 20
-1.49704
 11
7.46892
 21
-1.47342
  0
LINE
  8
0
 10
-8.03107
 20
-1.47342
 11
-8.38866
 21
-1.35724
  0
LINE
  8
0
 10
-8.38866
 20
-1.35724
 11
-8.70613
 21
-1.15576
  0
LINE
  8
0
 10
-8.70613
 20
-1.15576
 11
-8.96352
 21
-0.881668
  0
LINE
  8
0
 10
-8.96352
 20
-0.881668
 11
-9.14465
 21
-0.552185
  0
LINE
  8
0
 10
-9.14465
 20
-0.552185
 11
-9.23816
 21
-0.187988
  0
LINE
  8
0
 10
-9.23816
 20
-0.187988
 11
-9.23816
 21
0.187988
  0
LINE
  8
0
 10
-9.23816
 20
0.187988
 11
-9.14465
 21
0.552185
  0
LINE
  8
0
 10
-9.14465
 20
0.552185
 11
-8.96352
 21
0.881668
  0
LINE
  8
0
 10
-8.96352
 20
0.881668
 11
-8.70613
 21
1.15576
  0
LINE
  8
0
 10
-8.70613
 20
1.15576
 11
-8.38866
 21
1.35724
  0
LINE
  8
0
 10
-8.38866
 20
1.35724
 11
-8.03107
 21
1.47342
  0
LINE
  8
0
 10
-8.03107
 20
1.47342
 11
-7.65581
 21
1.49704
  0
LINE
  8
0
 10
-7.65581
 20
1.49704
 11
-7.28647
 21
1.42657
  0
LINE
  8
0
 10
-7.28647
 20
1.42657
 11
-6.94626
 21
1.26648
  0
LINE
  8
0
 10
-6.94626
 20
1.26648
 11
-6.65654
 21
1.02681
  0
LINE
  8
0
 10
-6.65654
 20
1.02681
 11
-6.43553
 21
0.722626
  0
LINE
  8
0
 10
-6.43553
 20
0.722626
 11
-6.29712
 21
0.373032
  0
LINE
  8
0
 10
-6.29712
 20
0.373032
 11
-6.25
 21
0
  0
LINE
  8
0
 10
-6.25
 20
0
 11
-6.29712
 21
-0.373032
  0
LINE
  8
0
 10
-6.29712
 20
-0.373032
 11
-6.43553
 21
-0.722626
  0
LINE
  8
0
 10
-6.43553
 20
-0.722626
 11
-6.65654
 21
-1.02681
  0
LINE
  8
0
 10
-6.65654
 20
-1.02681
 11
-6.94626
 21
-1.26648
  0
LINE
  8
0
 10
-6.94626
 20
-1.26648
 11
-7.28647
 21
-1.42657
  0
LINE
  8
0
 10
-7.28647
 20
-1.42657
 11
-7.65581
 21
-1.49704
  0
LINE
  8
0
 10
-7.65581
 20
-1.49704
 11
-8.03107
 21
-1.47342
  0
ENDSEC
  0
SECTION
  2
OBJECTS
  0
DICTIONARY
  0
ENDSEC
  0
EOF
