  0
SECTION
  2
BLOCKS
  0
ENDSEC
  0
SECTION
  2
ENTITIES
  0
LINE
  8
0
 10
0.627899
 20
-9.98026
 11
3.09016
 21
-9.51056
  0
LINE
  8
0
 10
3.09016
 20
-9.51056
 11
5.35826
 21
-8.44327
  0
LINE
  8
0
 10
5.35826
 20
-8.44327
 11
7.28967
 21
-6.84546
  0
LINE
  8
0
 10
7.28967
 20
-6.84546
 11
8.76306
 21
-4.81754
  0
LINE
  8
0
 10
8.76306
 20
-4.81754
 11
9.68582
 21
-2.48689
  0
LINE
  8
0
 10
9.68582
 20
-2.48689
 11
10
 21
0
  0
LINE
  8
0
 10
10
 20
0
 11
9.68582
 21
2.48689
  0
LINE
  8
0
 10
9.68582
 20
2.48689
 11
8.76306
 21
4.81754
  0
LINE
  8
0
 10
8.76306
 20
4.81754
 11
7.28967
 21
6.84546
  0
LINE
  8
0
 10
7.28967
 20
6.84546
 11
5.35826
 21
8.44327
  0
LINE
  8
0
 10
5.35826
 20
8.44327
 11
3.09016
 21
9.51056
  0
LINE
  8
0
 10
3.09016
 20
9.51056
 11
0.627899
 21
9.98026
  0
LINE
  8
0
 10
0.627899
 20
9.98026
 11
-1.87381
 21
9.82286
  0
LINE
  8
0
 10
-1.87381
 20
9.82286
 11
-4.25778
 21
9.04826
  0
LINE
  8
0
 10
-4.25778
 20
9.04826
 11
-6.37424
 21
7.70512
  0
LINE
  8
0
 10
-6.37424
 20
7.70512
 11
-8.09016
 21
5.87784
  0
LINE
  8
0
 10
-8.09016
 20
5.87784
 11
-9.29776
 21
3.68124
  0
LINE
  8
0
 10
-9.29776
 20
3.68124
 11
-9.92114
 21
1.25333
  0
LINE
  8
0
 10
-9.92114
 20
1.25333
 11
-9.92114
 21
-1.25333
  0
LINE
  8
0
 10
-9.92114
 20
-1.25333
 11
-9.29776
 21
-3.68124
  0
LINE
  8
0
 10
-9.29776
 20
-3.68124
 11
-8.09016
 21
-5.87784
  0
LINE
  8
0
 10
-8.09016
 20
-5.87784
 11
-6.37424
 21
-7.70512
  0
LINE
  8
0
 10
-6.37424
 20
-7.70512
 11
-4.25778
 21
-9.04826
  0
LINE
  8
0
 10
-4.25778
 20
-9.04826
 11
-1.87381
 21
-9.82286
  0
LINE
  8
0
 10
-1.87381
 20
-9.82286
 11
0.627899
 21
-9.98026
  0
LINE
  8
0
 10
-0.936905
 20
-4.91142
 11
-2.12889
 21
-4.52412
  0
LINE
  8
0
 10
-2.12889
 20
-4.52412
 11
-3.18712
 21
-3.85255
  0
LINE
  8
0
 10
-3.18712
 20
-3.85255
 11
-4.04507
 21
-2.93892
  0
LINE
  8
0
 10
-4.04507
 20
-2.93892
 11
-4.64888
 21
-1.84062
  0
LINE
  8
0
 10
-4.64888
 20
-1.84062
 11
-4.96057
 21
-0.626663
  0
LINE
  8
0
 10
-4.96057
 20
-0.626663
 11
-4.96057
 21
0.626663
  0
LINE
  8
0
 10
-4.96057
 20
0.626663
 11
-4.64888
 21
1.84062
  0
LINE
  8
0
 10
-4.64888
 20
1.84062
 11
-4.04507
 21
2.93892
  0
LINE
  8
0
 10
-4.04507
 20
2.93892
 11
-3.18712
 21
3.85255
  0
LINE
  8
0
 10
-3.18712
 20
3.85255
 11
-2.12889
 21
4.52412
  0
LINE
  8
0
 10
-2.12889
 20
4.52412
 11
-0.936905
 21
4.91142
  0
LINE
  8
0
 10
-0.936905
 20
4.91142
 11
0.31395
 21
4.99013
  0
LINE
  8
0
 10
0.31395
 20
4.99013
 11
1.54507
 21
4.75528
  0
LINE
  8
0
 10
1.54507
 20
4.75528
 11
2.67912
 21
4.22163
  0
LINE
  8
0
 10
2.67912
 20
4.22163
 11
3.64484
 21
3.42273
  0
LINE
  8
0
 10
3.64484
 20
3.42273
 11
4.38153
 21
2.40877
  0
LINE
  8
0
 10
4.38153
 20
2.40877
 11
4.84291
 21
1.24344
  0
LINE
  8
0
 10
4.84291
 20
1.24344
 11
5
 21
0
  0
LINE
  8
0
 10
5
 20
0
 11
4.84291
 21
-1.24344
  0
LINE
  8
0
 10
4.84291
 20
-1.24344
 11
4.38153
 21
-2.40877
  0
LINE
  8
0
 10
4.38153
 20
-2.40877
 11
3.64484
 21
-3.42273
  0
LINE
  8
0
 10
3.64484
 20
-3.42273
 11
2.67912
 21
-4.22163
  0
LINE
  8
0
 10
2.67912
 20
-4.22163
 11
1.54507
 21
-4.75528
  0
LINE
  8
0
 10
1.54507
 20
-4.75528
 11
0.31395
 21
-4.99013
  0
LINE
  8
0
 10
0.31395
 20
-4.99013
 11
-0.936905
 21
-4.91142
  0
LINE
  8
0
 10
-8.03107
 20
-1.47342
 11
-8.38866
 21
-1.35724
  0
LINE
  8
0
 10
-8.38866
 20
-1.35724
 11
-8.70613
 21
-1.15576
  0
LINE
  8
0
 10
-8.70613
 20
-1.15576
 11
-8.96352
 21
-0.881668
  0
LINE
  8
0
 10
-8.96352
 20
-0.881668
 11
-9.14465
 21
-0.552185
  0
LINE
  8
0
 10
-9.14465
 20
-0.552185
 11
-9.23816
 21
-0.187988
  0
LINE
  8
0
 10
-9.23816
 20
-0.187988
 11
-9.23816
 21
0.187988
  0
LINE
  8
0
 10
-9.23816
 20
0.187988
 11
-9.14465
 21
0.552185
  0
LINE
  8
0
 10
-9.14465
 20
0.552185
 11
-8.96352
 21
0.881668
  0
LINE
  8
0
 10
-8.96352
 20
0.881668
 11
-8.70613
 21
1.15576
  0
LINE
  8
0
 10
-8.70613
 20
1.15576
 11
-8.38866
 21
1.35724
  0
LINE
  8
0
 10
-8.38866
 20
1.35724
 11
-8.03107
 21
1.47342
  0
LINE
  8
0
 10
-8.03107
 20
1.47342
 11
-7.65581
 21
1.49704
  0
LINE
  8
0
 10
-7.65581
 20
1.49704
 11
-7.28647
 21
1.42657
  0
LINE
  8
0
 10
-7.28647
 20
1.42657
 11
-6.94626
 21
1.26648
  0
LINE
  8
0
 10
-6.94626
 20
1.26648
 11
-6.65654
 21
1.02681
  0
LINE
  8
0
 10
-6.65654
 20
1.02681
 11
-6.43553
 21
0.722626
  0
LINE
  8
0
 10
-6.43553
 20
0.722626
 11
-6.29712
 21
0.373032
  0
LINE
  8
0
 10
-6.29712
 20
0.373032
 11
-6.25
 21
0
  0
LINE
  8
0
 10
-6.25
 20
0
 11
-6.29712
 21
-0.373032
  0
LINE
  8
0
 10
-6.29712
 20
-0.373032
 11
-6.43553
 21
-0.722626
  0
LINE
  8
0
 10
-6.43553
 20
-0.722626
 11
-6.65654
 21
-1.02681
  0
LINE
  8
0
 10
-6.65654
 20
-1.02681
 11
-6.94626
 21
-1.26648
  0
LINE
  8
0
 10
-6.94626
 20
-1.26648
 11
-7.28647
 21
-1.42657
  0
LINE
  8
0
 10
-7.28647
 20
-1.42657
 11
-7.65581
 21
-1.49704
  0
LINE
  8
0
 10
-7.65581
 20
-1.49704
 11
-8.03107
 21
-1.47342
  0
LINE
  8
0
 10
7.46892
 20
-1.47342
 11
7.11133
 21
-1.35724
  0
LINE
  8
0
 10
7.11133
 20
-1.35724
 11
6.79385
 21
-1.15576
  0
LINE
  8
0
 10
6.79385
 20
-1.15576
 11
6.53647
 21
-0.881668
  0
LINE
  8
0
 10
6.53647
 20
-0.881668
 11
6.35533
 21
-0.552185
  0
LINE
  8
0
 10
6.35533
 20
-0.552185
 11
6.26183
 21
-0.187988
  0
LINE
  8
0
 10
6.26183
 20
-0.187988
 11
6.26183
 21
0.187988
  0
LINE
  8
0
 10
6.26183
 20
0.187988
 11
6.35533
 21
0.552185
  0
LINE
  8
0
 10
6.35533
 20
0.552185
 11
6.53647
 21
0.881668
  0
LINE
  8
0
 10
6.53647
 20
0.881668
 11
6.79385
 21
1.15576
  0
LINE
  8
0
 10
6.79385
 20
1.15576
 11
7.11133
 21
1.35724
  0
LINE
  8
0
 10
7.11133
 20
1.35724
 11
7.46892
 21
1.47342
  0
LINE
  8
0
 10
7.46892
 20
1.47342
 11
7.84418
 21
1.49704
  0
LINE
  8
0
 10
7.84418
 20
1.49704
 11
8.21352
 21
1.42657
  0
LINE
  8
0
 10
8.21352
 20
1.42657
 11
8.55373
 21
1.26648
  0
LINE
  8
0
 10
8.55373
 20
1.26648
 11
8.84344
 21
1.02681
  0
LINE
  8
0
 10
8.84344
 20
1.02681
 11
9.06445
 21
0.722626
  0
LINE
  8
0
 10
9.06445
 20
0.722626
 11
9.20287
 21
0.373032
  0
LINE
  8
0
 10
9.20287
 20
0.373032
 11
9.25
 21
0
  0
LINE
  8
0
 10
9.25
 20
0
 11
9.20287
 21
-0.373032
  0
LINE
  8
0
 10
9.20287
 20
-0.373032
 11
9.06445
 21
-0.722626
  0
LINE
  8
0
 10
9.06445
 20
-0.722626
 11
8.84344
 21
-1.02681
  0
LINE
  8
0
 10
8.84344
 20
-1.02681
 11
8.55373
 21
-1.26648
  0
LINE
  8
0
 10
8.55373
 20
-1.26648
 11
8.21352
 21
-1.42657
  0
LINE
  8
0
 10
8.21352
 20
-1.42657
 11
7.84418
 21
-1.49704
  0
LINE
  8
0
 10
7.84418
 20
-1.49704
 11
7.46892
 21
-1.47342
  0
ENDSEC
  0
SECTION
  2
OBJECTS
  0
DICTIONARY
  0
ENDSEC
  0
EOF
