<?xml version="1.0" standalone="no"?>
<!DOCTYPE svg PUBLIC "-//W3C//DTD SVG 1.1//EN" "http://www.w3.org/Graphics/SVG/1.1/DTD/svg11.dtd">
<svg width="20mm" height="20mm" viewBox="-10 -10 20 20" xmlns="http://www.w3.org/2000/svg" version="1.1">
<title>OpenSCAD Model</title>
<path d="
M 0.627899,9.98026 L 3.09016,9.51056 L 5.35826,8.44327 L 7.28967,6.84546 L 8.76306,4.81754 L 9.68582,2.48689
 L 10,-0 L 9.68582,-2.48689 L 8.76306,-4.81754 L 7.28967,-6.84546 L 5.35826,-8.44327 L 3.09016,-9.51056
 L 0.627899,-9.98026 L -1.87381,-9.82286 L -4.25778,-9.04826 L -6.37424,-7.70512 L -8.09016,-5.87784 L -9.29776,-3.68124
 L -9.92114,-1.25333 L -9.92114,1.25333 L -9.29776,3.68124 L -8.09016,5.87784 L -6.37424,7.70512 L -4.25778,9.04826
 L -1.87381,9.82286 z
M -0.936905,4.91142 L -2.12889,4.52412 L -3.18712,3.85255 L -4.04507,2.93892 L -4.64888,1.84062 L -4.96057,0.626663
 L -4.96057,-0.626663 L -4.64888,-1.84062 L -4.04507,-2.93892 L -3.18712,-3.85255 L -2.12889,-4.52412 L -0.936905,-4.91142
 L 0.31395,-4.99013 L 1.54507,-4.75528 L 2.67912,-4.22163 L 3.64484,-3.42273 L 4.38153,-2.40877 L 4.84291,-1.24344
 L 5,-0 L 4.84291,1.24344 L 4.38153,2.40877 L 3.64484,3.42273 L 2.67912,4.22163 L 1.54507,4.75528
 L 0.31395,4.99013 z
M -8.03107,1.47342 L -8.38866,1.35724 L -8.70613,1.15576 L -8.96352,0.881668 L -9.14465,0.552185 L -9.23816,0.187988
 L -9.23816,-0.187988 L -9.14465,-0.552185 L -8.96352,-0.881668 L -8.70613,-1.15576 L -8.38866,-1.35724 L -8.03107,-1.47342
 L -7.65581,-1.49704 L -7.28647,-1.42657 L -6.94626,-1.26648 L -6.65654,-1.02681 L -6.43553,-0.722626 L -6.29712,-0.373032
 L -6.25,-0 L -6.29712,0.373032 L -6.43553,0.722626 L -6.65654,1.02681 L -6.94626,1.26648 L -7.28647,1.42657
 L -7.65581,1.49704 z
M 7.46892,1.47342 L 7.11133,1.35724 L 6.79385,1.15576 L 6.53647,0.881668 L 6.35533,0.552185 L 6.26183,0.187988
 L 6.26183,-0.187988 L 6.35533,-0.552185 L 6.53647,-0.881668 L 6.79385,-1.15576 L 7.11133,-1.35724 L 7.46892,-1.47342
 L 7.84418,-1.49704 L 8.21352,-1.42657 L 8.55373,-1.26648 L 8.84344,-1.02681 L 9.06445,-0.722626 L 9.20287,-0.373032
 L 9.25,-0 L 9.20287,0.373032 L 9.06445,0.722626 L 8.84344,1.02681 L 8.55373,1.26648 L 8.21352,1.42657
 L 7.84418,1.49704 z
" stroke="black" fill="lightgray" stroke-width="0.5"/>
</svg>
